<?xml version="1.0" encoding="UTF-8" standalone="no"?>
<svg
   width="210mm"
   height="297mm"
   viewBox="0 0 210 297"
   version="1.1"
   inkscape:version="1.4.4 (dcaf3e7, 2026-05-05)"
   id="svg9"
   sodipodi:docname="restaurant-inkscape.svg"
   inkscape:export-filename="restaurant-inkscape.pdf"
   inkscape:export-xdpi="96"
   inkscape:export-ydpi="96"
   xmlns:inkscape="http://www.inkscape.org/namespaces/inkscape"
   xmlns:sodipodi="http://sodipodi.sourceforge.net/DTD/sodipodi-0.dtd"
   xmlns="http://www.w3.org/2000/svg"
   xmlns:svg="http://www.w3.org/2000/svg"
   xmlns:rdf="http://www.w3.org/1999/02/22-rdf-syntax-ns#"
   xmlns:cc="http://creativecommons.org/ns#"
   xmlns:dc="http://purl.org/dc/elements/1.1/">
  <sodipodi:namedview
     id="namedview9"
     pagecolor="#ffffff"
     bordercolor="#000000"
     borderopacity="0.25"
     inkscape:showpageshadow="2"
     inkscape:pageopacity="0.0"
     inkscape:pagecheckerboard="0"
     inkscape:deskcolor="#d1d1d1"
     inkscape:document-units="mm"
     inkscape:zoom="0.97653841"
     inkscape:cx="414.21822"
     inkscape:cy="-11.77629"
     inkscape:window-width="1728"
     inkscape:window-height="1000"
     inkscape:window-x="0"
     inkscape:window-y="38"
     inkscape:window-maximized="1"
     inkscape:current-layer="layer-artwork" />
  <title
     id="title1">QRStars ресторанная круглая наклейка</title>
  <defs
     id="defs3">
    <radialGradient
       id="paper"
       cx="0.43000001"
       cy="0.31999999"
       r="0.74000001">
      <stop
         offset="0%"
         stop-color="#fff8e6"
         id="stop1" />
      <stop
         offset="63%"
         stop-color="#ecd39a"
         id="stop2" />
      <stop
         offset="100%"
         stop-color="#c89549"
         id="stop3" />
    </radialGradient>
    <filter
       id="soft-shadow"
       x="0"
       y="0"
       width="1"
       height="1">
      <feDropShadow
         dx="0"
         dy="1.2"
         stdDeviation="1.4"
         flood-color="#4d321e"
         flood-opacity="0.16" />
    </filter>
  </defs>
  <g
     inkscape:groupmode="layer"
     inkscape:label="01 Background / bleed"
     id="layer-bleed" />
  <g
     inkscape:groupmode="layer"
     inkscape:label="02 Artwork"
     id="layer-artwork">
    <rect
       style="fill:#ffcc00;stroke-width:0.216837"
       id="rect10"
       width="49.839878"
       height="49.573349"
       x="2.4100413"
       y="1.2061349" />
    <text
       x="27.402218"
       y="4.6888542"
       text-anchor="middle"
       font-family="Montserrat, 'Avenir Next', 'Helvetica Neue', Arial, sans-serif"
       font-size="3.2px"
       letter-spacing="0.55"
       fill="#6f4b2b"
       id="text5">ВСЕ В ОДНОМ QR</text>
    <g
       id="qr-code"
       transform="matrix(0.60178499,0,0,0.60178499,15.045766,16.544382)"
       shape-rendering="crispEdges">
      <path
         fill="#fffdf6"
         d="M 0,0 H 41 V 41 H 0 Z"
         id="path6" />
      <path
         stroke="#231914"
         d="m 2,2.5 h 7 m 1,0 h 1 m 1,0 h 1 m 1,0 h 1 m 2,0 h 1 m 1,0 h 2 m 1,0 h 1 m 1,0 h 2 m 3,0 h 1 m 2,0 h 7 m -37,1 h 1 m 5,0 h 1 m 1,0 h 2 m 1,0 h 3 m 3,0 h 1 m 1,0 h 3 m 2,0 h 1 m 1,0 h 3 m 1,0 h 1 m 5,0 h 1 m -37,1 h 1 m 1,0 h 3 m 1,0 h 1 m 5,0 h 1 m 2,0 h 4 m 1,0 h 1 m 2,0 h 2 m 2,0 h 2 m 1,0 h 1 m 1,0 h 3 m 1,0 h 1 m -37,1 h 1 m 1,0 h 3 m 1,0 h 1 m 1,0 h 2 m 2,0 h 2 m 1,0 h 1 m 2,0 h 1 m 1,0 h 1 m 2,0 h 1 m 2,0 h 2 m 2,0 h 1 m 1,0 h 3 m 1,0 h 1 m -37,1 h 1 m 1,0 h 3 m 1,0 h 1 m 1,0 h 2 m 3,0 h 1 m 2,0 h 1 m 2,0 h 1 m 1,0 h 2 m 1,0 h 1 m 1,0 h 2 m 2,0 h 1 m 1,0 h 3 m 1,0 h 1 m -37,1 h 1 m 5,0 h 1 m 1,0 h 1 m 2,0 h 4 m 1,0 h 1 m 4,0 h 2 m 1,0 h 1 m 2,0 h 2 m 1,0 h 1 m 5,0 h 1 m -37,1 h 7 m 1,0 h 1 m 1,0 h 1 m 1,0 h 1 m 1,0 h 1 m 1,0 h 1 m 1,0 h 1 m 1,0 h 1 m 1,0 h 1 m 1,0 h 1 m 1,0 h 1 m 1,0 h 1 m 1,0 h 7 m -27,1 h 3 m 1,0 h 1 m 1,0 h 2 m 2,0 h 1 m 1,0 h 2 m 1,0 h 1 m -23,1 h 1 m 2,0 h 1 m 4,0 h 3 m 2,0 h 2 m 4,0 h 2 m 2,0 h 3 m 2,0 h 3 m 1,0 h 2 m -34,1 h 1 m 4,0 h 2 m 1,0 h 1 m 1,0 h 4 m 2,0 h 1 m 1,0 h 3 m 3,0 h 1 m 1,0 h 2 m 3,0 h 3 m -37,1 h 4 m 1,0 h 4 m 2,0 h 3 m 1,0 h 1 m 1,0 h 5 m 1,0 h 2 m 3,0 h 1 m 1,0 h 3 m 3,0 h 1 m -37,1 h 2 m 2,0 h 1 m 3,0 h 2 m 1,0 h 3 m 2,0 h 2 m 1,0 h 1 m 1,0 h 2 m 2,0 h 1 m 2,0 h 1 m 3,0 h 1 m 2,0 h 1 m -35,1 h 2 m 2,0 h 3 m 2,0 h 3 m 1,0 h 3 m 1,0 h 4 m 1,0 h 3 m 2,0 h 3 m 4,0 h 2 m -36,1 h 2 m 1,0 h 2 m 2,0 h 4 m 1,0 h 1 m 6,0 h 1 m 1,0 h 1 m 7,0 h 2 m 1,0 h 1 m 1,0 h 2 m -36,1 h 1 m 1,0 h 4 m 1,0 h 3 m 1,0 h 3 m 1,0 h 2 m 1,0 h 1 m 1,0 h 1 m 3,0 h 1 m 3,0 h 4 m 1,0 h 3 m -35,1 h 1 m 8,0 h 3 m 1,0 h 6 m 2,0 h 4 m 1,0 h 1 m 1,0 h 2 m 3,0 h 1 m -36,1 h 2 m 1,0 h 1 m 1,0 h 2 m 3,0 h 1 m 5,0 h 3 m 1,0 h 1 m 1,0 h 3 m 1,0 h 5 m 2,0 h 2 m 1,0 h 1 m -37,1 h 3 m 2,0 h 1 m 2,0 h 3 m 4,0 h 1 m 1,0 h 1 m 1,0 h 5 m 1,0 h 2 m 1,0 h 3 m 1,0 h 1 m 1,0 h 1 m 1,0 h 1 m -37,1 h 1 m 5,0 h 1 m 1,0 h 1 m 1,0 h 1 m 1,0 h 1 m 1,0 h 2 m 1,0 h 1 m 1,0 h 1 m 1,0 h 1 m 8,0 h 1 m 4,0 h 2 m -37,1 h 1 m 2,0 h 1 m 1,0 h 1 m 4,0 h 1 m 3,0 h 2 m 1,0 h 3 m 1,0 h 4 m 1,0 h 3 m 5,0 h 2 m -33,1 h 1 m 1,0 h 4 m 3,0 h 2 m 2,0 h 2 m 5,0 h 1 m 1,0 h 2 m 1,0 h 1 m 1,0 h 4 m 1,0 h 1 m -35,1 h 2 m 4,0 h 1 m 2,0 h 2 m 5,0 h 3 m 1,0 h 1 m 2,0 h 2 m 3,0 h 2 m 3,0 h 3 m -37,1 h 4 m 2,0 h 1 m 1,0 h 1 m 2,0 h 1 m 1,0 h 4 m 2,0 h 1 m 2,0 h 1 m 1,0 h 3 m 4,0 h 6 m -36,1 h 2 m 1,0 h 1 m 3,0 h 4 m 8,0 h 1 m 1,0 h 1 m 2,0 h 1 m 3,0 h 1 m 2,0 h 1 m 2,0 h 1 m -36,1 h 2 m 2,0 h 3 m 6,0 h 2 m 1,0 h 1 m 2,0 h 1 m 1,0 h 1 m 4,0 h 5 m 2,0 h 1 m 1,0 h 1 m -32,1 h 2 m 1,0 h 1 m 1,0 h 6 m 1,0 h 3 m 1,0 h 1 m 1,0 h 2 m 2,0 h 1 m 2,0 h 3 m 1,0 h 2 m 1,0 h 1 m -37,1 h 1 m 3,0 h 3 m 2,0 h 2 m 3,0 h 2 m 2,0 h 1 m 3,0 h 2 m 4,0 h 3 m 1,0 h 3 m 1,0 h 1 m -36,1 h 3 m 8,0 h 2 m 1,0 h 1 m 1,0 h 3 m 2,0 h 2 m 1,0 h 2 m 1,0 h 1 m 1,0 h 1 m 1,0 h 1 m 2,0 h 2 m -37,1 h 2 m 1,0 h 2 m 1,0 h 3 m 2,0 h 1 m 3,0 h 2 m 1,0 h 1 m 5,0 h 1 m 2,0 h 6 m 1,0 h 1 m 1,0 h 1 m -29,1 h 1 m 1,0 h 1 m 4,0 h 1 m 1,0 h 1 m 1,0 h 1 m 3,0 h 1 m 3,0 h 2 m 3,0 h 1 m 2,0 h 2 m -37,1 h 7 m 3,0 h 3 m 1,0 h 1 m 1,0 h 1 m 1,0 h 1 m 2,0 h 1 m 3,0 h 1 m 1,0 h 2 m 1,0 h 1 m 1,0 h 1 m 1,0 h 3 m -37,1 h 1 m 5,0 h 1 m 2,0 h 3 m 1,0 h 1 m 2,0 h 2 m 2,0 h 3 m 1,0 h 1 m 2,0 h 2 m 3,0 h 1 m 1,0 h 2 m -36,1 h 1 m 1,0 h 3 m 1,0 h 1 m 2,0 h 1 m 1,0 h 4 m 4,0 h 3 m 2,0 h 3 m 1,0 h 6 m 1,0 h 2 m -37,1 h 1 m 1,0 h 3 m 1,0 h 1 m 1,0 h 1 m 1,0 h 1 m 1,0 h 1 m 1,0 h 1 m 2,0 h 3 m 1,0 h 1 m 1,0 h 2 m 1,0 h 4 m 1,0 h 3 m 1,0 h 2 m -37,1 h 1 m 1,0 h 3 m 1,0 h 1 m 2,0 h 3 m 1,0 h 1 m 2,0 h 4 m 1,0 h 5 m 1,0 h 3 m 2,0 h 2 m 2,0 h 1 m -37,1 h 1 m 5,0 h 1 m 4,0 h 2 m 1,0 h 3 m 1,0 h 1 m 2,0 h 5 m 1,0 h 3 m -30,1 h 7 m 3,0 h 2 m 3,0 h 1 m 1,0 h 1 m 1,0 h 1 m 2,0 h 4 m 1,0 h 2 m 1,0 h 1 m 1,0 h 2 m 1,0 h 2"
         id="path7" />
    </g>
    <text
       x="27.288151"
       y="46.697819"
       text-anchor="middle"
       font-family="Montserrat, 'Avenir Next', 'Helvetica Neue', Arial, sans-serif"
       font-size="4.02106px"
       letter-spacing="0.55"
       fill="#231914"
       font-weight="600"
       id="text7"
       style="stroke-width:0.913877">ОТЗЫВЫ • ЧАЕВЫЕ</text>
    <text
       xml:space="preserve"
       style="font-size:11.9196px;writing-mode:lr-tb;direction:ltr;fill:#000000;stroke-width:0.744977"
       x="7.6798363"
       y="14.840002"
       id="text10"
       transform="scale(0.96024066,1.0414056)"><tspan
         sodipodi:role="line"
         id="tspan9"
         style="font-style:normal;font-variant:normal;font-weight:bold;font-stretch:normal;font-size:11.9196px;font-family:Montserrat, 'Avenir Next', 'Helvetica Neue', Arial, sans-serif;-inkscape-font-specification:'Montserrat, Avenir Next, Helvetica Neue, Arial, sans-serif Bold';stroke-width:0.744977"
         x="7.6798363"
         y="14.840002">МЕНЮ</tspan></text>
    <text
       x="53"
       y="98.199997"
       text-anchor="middle"
       font-family="Montserrat, 'Avenir Next', 'Helvetica Neue', Arial, sans-serif"
       font-size="2.5px"
       letter-spacing="0.35"
       fill="#231914"
       id="text9"
       inkscape:transform-center-x="-0.811394"
       inkscape:transform-center-y="12.982304"
       style="white-space:pre;inline-size:23.3816;fill:#4d4d4d"
       transform="translate(-25.619004,-48.219577)"
       xml:space="preserve"><tspan
         x="53"
         y="98.199997"
         id="tspan2">qrstars.ru</tspan></text>
    <rect
       style="fill:#ff0000;stroke-width:0.216837"
       id="rect10-2"
       width="49.839878"
       height="49.573349"
       x="55.429783"
       y="1.0089983" />
    <text
       x="80.421959"
       y="4.4917173"
       text-anchor="middle"
       font-family="Montserrat, 'Avenir Next', 'Helvetica Neue', Arial, sans-serif"
       font-size="3.2px"
       letter-spacing="0.55"
       fill="#6f4b2b"
       id="text5-6"
       style="fill:#ffffff">ВСЕ В ОДНОМ QR</text>
    <g
       id="qr-code-6"
       transform="matrix(0.60178499,0,0,0.60178499,68.065508,16.347245)"
       shape-rendering="crispEdges">
      <path
         fill="#fffdf6"
         d="M 0,0 H 41 V 41 H 0 Z"
         id="path6-7" />
      <path
         stroke="#231914"
         d="m 2,2.5 h 7 m 1,0 h 1 m 1,0 h 1 m 1,0 h 1 m 2,0 h 1 m 1,0 h 2 m 1,0 h 1 m 1,0 h 2 m 3,0 h 1 m 2,0 h 7 m -37,1 h 1 m 5,0 h 1 m 1,0 h 2 m 1,0 h 3 m 3,0 h 1 m 1,0 h 3 m 2,0 h 1 m 1,0 h 3 m 1,0 h 1 m 5,0 h 1 m -37,1 h 1 m 1,0 h 3 m 1,0 h 1 m 5,0 h 1 m 2,0 h 4 m 1,0 h 1 m 2,0 h 2 m 2,0 h 2 m 1,0 h 1 m 1,0 h 3 m 1,0 h 1 m -37,1 h 1 m 1,0 h 3 m 1,0 h 1 m 1,0 h 2 m 2,0 h 2 m 1,0 h 1 m 2,0 h 1 m 1,0 h 1 m 2,0 h 1 m 2,0 h 2 m 2,0 h 1 m 1,0 h 3 m 1,0 h 1 m -37,1 h 1 m 1,0 h 3 m 1,0 h 1 m 1,0 h 2 m 3,0 h 1 m 2,0 h 1 m 2,0 h 1 m 1,0 h 2 m 1,0 h 1 m 1,0 h 2 m 2,0 h 1 m 1,0 h 3 m 1,0 h 1 m -37,1 h 1 m 5,0 h 1 m 1,0 h 1 m 2,0 h 4 m 1,0 h 1 m 4,0 h 2 m 1,0 h 1 m 2,0 h 2 m 1,0 h 1 m 5,0 h 1 m -37,1 h 7 m 1,0 h 1 m 1,0 h 1 m 1,0 h 1 m 1,0 h 1 m 1,0 h 1 m 1,0 h 1 m 1,0 h 1 m 1,0 h 1 m 1,0 h 1 m 1,0 h 1 m 1,0 h 1 m 1,0 h 7 m -27,1 h 3 m 1,0 h 1 m 1,0 h 2 m 2,0 h 1 m 1,0 h 2 m 1,0 h 1 m -23,1 h 1 m 2,0 h 1 m 4,0 h 3 m 2,0 h 2 m 4,0 h 2 m 2,0 h 3 m 2,0 h 3 m 1,0 h 2 m -34,1 h 1 m 4,0 h 2 m 1,0 h 1 m 1,0 h 4 m 2,0 h 1 m 1,0 h 3 m 3,0 h 1 m 1,0 h 2 m 3,0 h 3 m -37,1 h 4 m 1,0 h 4 m 2,0 h 3 m 1,0 h 1 m 1,0 h 5 m 1,0 h 2 m 3,0 h 1 m 1,0 h 3 m 3,0 h 1 m -37,1 h 2 m 2,0 h 1 m 3,0 h 2 m 1,0 h 3 m 2,0 h 2 m 1,0 h 1 m 1,0 h 2 m 2,0 h 1 m 2,0 h 1 m 3,0 h 1 m 2,0 h 1 m -35,1 h 2 m 2,0 h 3 m 2,0 h 3 m 1,0 h 3 m 1,0 h 4 m 1,0 h 3 m 2,0 h 3 m 4,0 h 2 m -36,1 h 2 m 1,0 h 2 m 2,0 h 4 m 1,0 h 1 m 6,0 h 1 m 1,0 h 1 m 7,0 h 2 m 1,0 h 1 m 1,0 h 2 m -36,1 h 1 m 1,0 h 4 m 1,0 h 3 m 1,0 h 3 m 1,0 h 2 m 1,0 h 1 m 1,0 h 1 m 3,0 h 1 m 3,0 h 4 m 1,0 h 3 m -35,1 h 1 m 8,0 h 3 m 1,0 h 6 m 2,0 h 4 m 1,0 h 1 m 1,0 h 2 m 3,0 h 1 m -36,1 h 2 m 1,0 h 1 m 1,0 h 2 m 3,0 h 1 m 5,0 h 3 m 1,0 h 1 m 1,0 h 3 m 1,0 h 5 m 2,0 h 2 m 1,0 h 1 m -37,1 h 3 m 2,0 h 1 m 2,0 h 3 m 4,0 h 1 m 1,0 h 1 m 1,0 h 5 m 1,0 h 2 m 1,0 h 3 m 1,0 h 1 m 1,0 h 1 m 1,0 h 1 m -37,1 h 1 m 5,0 h 1 m 1,0 h 1 m 1,0 h 1 m 1,0 h 1 m 1,0 h 2 m 1,0 h 1 m 1,0 h 1 m 1,0 h 1 m 8,0 h 1 m 4,0 h 2 m -37,1 h 1 m 2,0 h 1 m 1,0 h 1 m 4,0 h 1 m 3,0 h 2 m 1,0 h 3 m 1,0 h 4 m 1,0 h 3 m 5,0 h 2 m -33,1 h 1 m 1,0 h 4 m 3,0 h 2 m 2,0 h 2 m 5,0 h 1 m 1,0 h 2 m 1,0 h 1 m 1,0 h 4 m 1,0 h 1 m -35,1 h 2 m 4,0 h 1 m 2,0 h 2 m 5,0 h 3 m 1,0 h 1 m 2,0 h 2 m 3,0 h 2 m 3,0 h 3 m -37,1 h 4 m 2,0 h 1 m 1,0 h 1 m 2,0 h 1 m 1,0 h 4 m 2,0 h 1 m 2,0 h 1 m 1,0 h 3 m 4,0 h 6 m -36,1 h 2 m 1,0 h 1 m 3,0 h 4 m 8,0 h 1 m 1,0 h 1 m 2,0 h 1 m 3,0 h 1 m 2,0 h 1 m 2,0 h 1 m -36,1 h 2 m 2,0 h 3 m 6,0 h 2 m 1,0 h 1 m 2,0 h 1 m 1,0 h 1 m 4,0 h 5 m 2,0 h 1 m 1,0 h 1 m -32,1 h 2 m 1,0 h 1 m 1,0 h 6 m 1,0 h 3 m 1,0 h 1 m 1,0 h 2 m 2,0 h 1 m 2,0 h 3 m 1,0 h 2 m 1,0 h 1 m -37,1 h 1 m 3,0 h 3 m 2,0 h 2 m 3,0 h 2 m 2,0 h 1 m 3,0 h 2 m 4,0 h 3 m 1,0 h 3 m 1,0 h 1 m -36,1 h 3 m 8,0 h 2 m 1,0 h 1 m 1,0 h 3 m 2,0 h 2 m 1,0 h 2 m 1,0 h 1 m 1,0 h 1 m 1,0 h 1 m 2,0 h 2 m -37,1 h 2 m 1,0 h 2 m 1,0 h 3 m 2,0 h 1 m 3,0 h 2 m 1,0 h 1 m 5,0 h 1 m 2,0 h 6 m 1,0 h 1 m 1,0 h 1 m -29,1 h 1 m 1,0 h 1 m 4,0 h 1 m 1,0 h 1 m 1,0 h 1 m 3,0 h 1 m 3,0 h 2 m 3,0 h 1 m 2,0 h 2 m -37,1 h 7 m 3,0 h 3 m 1,0 h 1 m 1,0 h 1 m 1,0 h 1 m 2,0 h 1 m 3,0 h 1 m 1,0 h 2 m 1,0 h 1 m 1,0 h 1 m 1,0 h 3 m -37,1 h 1 m 5,0 h 1 m 2,0 h 3 m 1,0 h 1 m 2,0 h 2 m 2,0 h 3 m 1,0 h 1 m 2,0 h 2 m 3,0 h 1 m 1,0 h 2 m -36,1 h 1 m 1,0 h 3 m 1,0 h 1 m 2,0 h 1 m 1,0 h 4 m 4,0 h 3 m 2,0 h 3 m 1,0 h 6 m 1,0 h 2 m -37,1 h 1 m 1,0 h 3 m 1,0 h 1 m 1,0 h 1 m 1,0 h 1 m 1,0 h 1 m 1,0 h 1 m 2,0 h 3 m 1,0 h 1 m 1,0 h 2 m 1,0 h 4 m 1,0 h 3 m 1,0 h 2 m -37,1 h 1 m 1,0 h 3 m 1,0 h 1 m 2,0 h 3 m 1,0 h 1 m 2,0 h 4 m 1,0 h 5 m 1,0 h 3 m 2,0 h 2 m 2,0 h 1 m -37,1 h 1 m 5,0 h 1 m 4,0 h 2 m 1,0 h 3 m 1,0 h 1 m 2,0 h 5 m 1,0 h 3 m -30,1 h 7 m 3,0 h 2 m 3,0 h 1 m 1,0 h 1 m 1,0 h 1 m 2,0 h 4 m 1,0 h 2 m 1,0 h 1 m 1,0 h 2 m 1,0 h 2"
         id="path7-8" />
    </g>
    <text
       x="80.307892"
       y="46.500679"
       text-anchor="middle"
       font-family="Montserrat, 'Avenir Next', 'Helvetica Neue', Arial, sans-serif"
       font-size="4.02106px"
       letter-spacing="0.55"
       fill="#231914"
       font-weight="600"
       id="text7-4"
       style="fill:#ffffff;stroke-width:0.913877">ОТЗЫВЫ • ЧАЕВЫЕ</text>
    <text
       xml:space="preserve"
       style="font-size:11.9196px;writing-mode:lr-tb;direction:ltr;fill:#ffffff;stroke-width:0.744977"
       x="62.894897"
       y="14.650702"
       id="text10-1"
       transform="scale(0.96024066,1.0414056)"><tspan
         sodipodi:role="line"
         id="tspan9-7"
         style="font-style:normal;font-variant:normal;font-weight:bold;font-stretch:normal;font-size:11.9196px;font-family:Montserrat, 'Avenir Next', 'Helvetica Neue', Arial, sans-serif;-inkscape-font-specification:'Montserrat, Avenir Next, Helvetica Neue, Arial, sans-serif Bold';fill:#ffffff;stroke-width:0.744977"
         x="62.894897"
         y="14.650702">МЕНЮ</tspan></text>
    <text
       x="53"
       y="98.199997"
       text-anchor="middle"
       font-family="Montserrat, 'Avenir Next', 'Helvetica Neue', Arial, sans-serif"
       font-size="2.5px"
       letter-spacing="0.35"
       fill="#231914"
       id="text9-1"
       inkscape:transform-center-x="-0.811394"
       inkscape:transform-center-y="12.982304"
       style="white-space:pre;inline-size:23.3816;fill:#4d4d4d"
       transform="translate(27.400738,-48.416714)"
       xml:space="preserve"><tspan
         x="53"
         y="98.199997"
         id="tspan3">qrstars.ru</tspan></text>
    <rect
       style="fill:#55d400;stroke-width:0.216837"
       id="rect10-7"
       width="49.839878"
       height="49.573349"
       x="107.82591"
       y="1.0729861" />
    <text
       x="132.8181"
       y="4.5557055"
       text-anchor="middle"
       font-family="Montserrat, 'Avenir Next', 'Helvetica Neue', Arial, sans-serif"
       font-size="3.2px"
       letter-spacing="0.55"
       fill="#6f4b2b"
       id="text5-7">ВСЕ В ОДНОМ QR</text>
    <g
       id="qr-code-4"
       transform="matrix(0.60178499,0,0,0.60178499,120.46165,16.411234)"
       shape-rendering="crispEdges">
      <path
         fill="#fffdf6"
         d="M 0,0 H 41 V 41 H 0 Z"
         id="path6-4" />
      <path
         stroke="#231914"
         d="m 2,2.5 h 7 m 1,0 h 1 m 1,0 h 1 m 1,0 h 1 m 2,0 h 1 m 1,0 h 2 m 1,0 h 1 m 1,0 h 2 m 3,0 h 1 m 2,0 h 7 m -37,1 h 1 m 5,0 h 1 m 1,0 h 2 m 1,0 h 3 m 3,0 h 1 m 1,0 h 3 m 2,0 h 1 m 1,0 h 3 m 1,0 h 1 m 5,0 h 1 m -37,1 h 1 m 1,0 h 3 m 1,0 h 1 m 5,0 h 1 m 2,0 h 4 m 1,0 h 1 m 2,0 h 2 m 2,0 h 2 m 1,0 h 1 m 1,0 h 3 m 1,0 h 1 m -37,1 h 1 m 1,0 h 3 m 1,0 h 1 m 1,0 h 2 m 2,0 h 2 m 1,0 h 1 m 2,0 h 1 m 1,0 h 1 m 2,0 h 1 m 2,0 h 2 m 2,0 h 1 m 1,0 h 3 m 1,0 h 1 m -37,1 h 1 m 1,0 h 3 m 1,0 h 1 m 1,0 h 2 m 3,0 h 1 m 2,0 h 1 m 2,0 h 1 m 1,0 h 2 m 1,0 h 1 m 1,0 h 2 m 2,0 h 1 m 1,0 h 3 m 1,0 h 1 m -37,1 h 1 m 5,0 h 1 m 1,0 h 1 m 2,0 h 4 m 1,0 h 1 m 4,0 h 2 m 1,0 h 1 m 2,0 h 2 m 1,0 h 1 m 5,0 h 1 m -37,1 h 7 m 1,0 h 1 m 1,0 h 1 m 1,0 h 1 m 1,0 h 1 m 1,0 h 1 m 1,0 h 1 m 1,0 h 1 m 1,0 h 1 m 1,0 h 1 m 1,0 h 1 m 1,0 h 1 m 1,0 h 7 m -27,1 h 3 m 1,0 h 1 m 1,0 h 2 m 2,0 h 1 m 1,0 h 2 m 1,0 h 1 m -23,1 h 1 m 2,0 h 1 m 4,0 h 3 m 2,0 h 2 m 4,0 h 2 m 2,0 h 3 m 2,0 h 3 m 1,0 h 2 m -34,1 h 1 m 4,0 h 2 m 1,0 h 1 m 1,0 h 4 m 2,0 h 1 m 1,0 h 3 m 3,0 h 1 m 1,0 h 2 m 3,0 h 3 m -37,1 h 4 m 1,0 h 4 m 2,0 h 3 m 1,0 h 1 m 1,0 h 5 m 1,0 h 2 m 3,0 h 1 m 1,0 h 3 m 3,0 h 1 m -37,1 h 2 m 2,0 h 1 m 3,0 h 2 m 1,0 h 3 m 2,0 h 2 m 1,0 h 1 m 1,0 h 2 m 2,0 h 1 m 2,0 h 1 m 3,0 h 1 m 2,0 h 1 m -35,1 h 2 m 2,0 h 3 m 2,0 h 3 m 1,0 h 3 m 1,0 h 4 m 1,0 h 3 m 2,0 h 3 m 4,0 h 2 m -36,1 h 2 m 1,0 h 2 m 2,0 h 4 m 1,0 h 1 m 6,0 h 1 m 1,0 h 1 m 7,0 h 2 m 1,0 h 1 m 1,0 h 2 m -36,1 h 1 m 1,0 h 4 m 1,0 h 3 m 1,0 h 3 m 1,0 h 2 m 1,0 h 1 m 1,0 h 1 m 3,0 h 1 m 3,0 h 4 m 1,0 h 3 m -35,1 h 1 m 8,0 h 3 m 1,0 h 6 m 2,0 h 4 m 1,0 h 1 m 1,0 h 2 m 3,0 h 1 m -36,1 h 2 m 1,0 h 1 m 1,0 h 2 m 3,0 h 1 m 5,0 h 3 m 1,0 h 1 m 1,0 h 3 m 1,0 h 5 m 2,0 h 2 m 1,0 h 1 m -37,1 h 3 m 2,0 h 1 m 2,0 h 3 m 4,0 h 1 m 1,0 h 1 m 1,0 h 5 m 1,0 h 2 m 1,0 h 3 m 1,0 h 1 m 1,0 h 1 m 1,0 h 1 m -37,1 h 1 m 5,0 h 1 m 1,0 h 1 m 1,0 h 1 m 1,0 h 1 m 1,0 h 2 m 1,0 h 1 m 1,0 h 1 m 1,0 h 1 m 8,0 h 1 m 4,0 h 2 m -37,1 h 1 m 2,0 h 1 m 1,0 h 1 m 4,0 h 1 m 3,0 h 2 m 1,0 h 3 m 1,0 h 4 m 1,0 h 3 m 5,0 h 2 m -33,1 h 1 m 1,0 h 4 m 3,0 h 2 m 2,0 h 2 m 5,0 h 1 m 1,0 h 2 m 1,0 h 1 m 1,0 h 4 m 1,0 h 1 m -35,1 h 2 m 4,0 h 1 m 2,0 h 2 m 5,0 h 3 m 1,0 h 1 m 2,0 h 2 m 3,0 h 2 m 3,0 h 3 m -37,1 h 4 m 2,0 h 1 m 1,0 h 1 m 2,0 h 1 m 1,0 h 4 m 2,0 h 1 m 2,0 h 1 m 1,0 h 3 m 4,0 h 6 m -36,1 h 2 m 1,0 h 1 m 3,0 h 4 m 8,0 h 1 m 1,0 h 1 m 2,0 h 1 m 3,0 h 1 m 2,0 h 1 m 2,0 h 1 m -36,1 h 2 m 2,0 h 3 m 6,0 h 2 m 1,0 h 1 m 2,0 h 1 m 1,0 h 1 m 4,0 h 5 m 2,0 h 1 m 1,0 h 1 m -32,1 h 2 m 1,0 h 1 m 1,0 h 6 m 1,0 h 3 m 1,0 h 1 m 1,0 h 2 m 2,0 h 1 m 2,0 h 3 m 1,0 h 2 m 1,0 h 1 m -37,1 h 1 m 3,0 h 3 m 2,0 h 2 m 3,0 h 2 m 2,0 h 1 m 3,0 h 2 m 4,0 h 3 m 1,0 h 3 m 1,0 h 1 m -36,1 h 3 m 8,0 h 2 m 1,0 h 1 m 1,0 h 3 m 2,0 h 2 m 1,0 h 2 m 1,0 h 1 m 1,0 h 1 m 1,0 h 1 m 2,0 h 2 m -37,1 h 2 m 1,0 h 2 m 1,0 h 3 m 2,0 h 1 m 3,0 h 2 m 1,0 h 1 m 5,0 h 1 m 2,0 h 6 m 1,0 h 1 m 1,0 h 1 m -29,1 h 1 m 1,0 h 1 m 4,0 h 1 m 1,0 h 1 m 1,0 h 1 m 3,0 h 1 m 3,0 h 2 m 3,0 h 1 m 2,0 h 2 m -37,1 h 7 m 3,0 h 3 m 1,0 h 1 m 1,0 h 1 m 1,0 h 1 m 2,0 h 1 m 3,0 h 1 m 1,0 h 2 m 1,0 h 1 m 1,0 h 1 m 1,0 h 3 m -37,1 h 1 m 5,0 h 1 m 2,0 h 3 m 1,0 h 1 m 2,0 h 2 m 2,0 h 3 m 1,0 h 1 m 2,0 h 2 m 3,0 h 1 m 1,0 h 2 m -36,1 h 1 m 1,0 h 3 m 1,0 h 1 m 2,0 h 1 m 1,0 h 4 m 4,0 h 3 m 2,0 h 3 m 1,0 h 6 m 1,0 h 2 m -37,1 h 1 m 1,0 h 3 m 1,0 h 1 m 1,0 h 1 m 1,0 h 1 m 1,0 h 1 m 1,0 h 1 m 2,0 h 3 m 1,0 h 1 m 1,0 h 2 m 1,0 h 4 m 1,0 h 3 m 1,0 h 2 m -37,1 h 1 m 1,0 h 3 m 1,0 h 1 m 2,0 h 3 m 1,0 h 1 m 2,0 h 4 m 1,0 h 5 m 1,0 h 3 m 2,0 h 2 m 2,0 h 1 m -37,1 h 1 m 5,0 h 1 m 4,0 h 2 m 1,0 h 3 m 1,0 h 1 m 2,0 h 5 m 1,0 h 3 m -30,1 h 7 m 3,0 h 2 m 3,0 h 1 m 1,0 h 1 m 1,0 h 1 m 2,0 h 4 m 1,0 h 2 m 1,0 h 1 m 1,0 h 2 m 1,0 h 2"
         id="path7-9" />
    </g>
    <text
       x="132.70403"
       y="46.564671"
       text-anchor="middle"
       font-family="Montserrat, 'Avenir Next', 'Helvetica Neue', Arial, sans-serif"
       font-size="4.02106px"
       letter-spacing="0.55"
       fill="#231914"
       font-weight="600"
       id="text7-1"
       style="stroke-width:0.913877">ОТЗЫВЫ • ЧАЕВЫЕ</text>
    <text
       xml:space="preserve"
       style="font-size:11.9196px;writing-mode:lr-tb;direction:ltr;fill:#000000;stroke-width:0.744977"
       x="117.46053"
       y="14.712147"
       id="text10-5"
       transform="scale(0.96024066,1.0414056)"><tspan
         sodipodi:role="line"
         id="tspan9-5"
         style="font-style:normal;font-variant:normal;font-weight:bold;font-stretch:normal;font-size:11.9196px;font-family:Montserrat, 'Avenir Next', 'Helvetica Neue', Arial, sans-serif;-inkscape-font-specification:'Montserrat, Avenir Next, Helvetica Neue, Arial, sans-serif Bold';stroke-width:0.744977"
         x="117.46053"
         y="14.712147">МЕНЮ</tspan></text>
    <text
       x="53"
       y="98.199997"
       text-anchor="middle"
       font-family="Montserrat, 'Avenir Next', 'Helvetica Neue', Arial, sans-serif"
       font-size="2.5px"
       letter-spacing="0.35"
       fill="#231914"
       id="text9-5"
       inkscape:transform-center-x="-0.811394"
       inkscape:transform-center-y="12.982304"
       style="white-space:pre;inline-size:23.3816;fill:#4d4d4d"
       transform="translate(79.796872,-48.352725)"
       xml:space="preserve"><tspan
         x="53"
         y="98.199997"
         id="tspan4">qrstars.ru</tspan></text>
    <rect
       style="fill:#0000ff;stroke-width:0.216837"
       id="rect10-7-9"
       width="49.839878"
       height="49.573349"
       x="159.09055"
       y="1.1506137" />
    <text
       x="184.08272"
       y="4.6333332"
       text-anchor="middle"
       font-family="Montserrat, 'Avenir Next', 'Helvetica Neue', Arial, sans-serif"
       font-size="3.2px"
       letter-spacing="0.55"
       fill="#6f4b2b"
       id="text5-7-8"
       style="fill:#ffffff">ВСЕ В ОДНОМ QR</text>
    <g
       id="qr-code-4-2"
       transform="matrix(0.60178499,0,0,0.60178499,171.72628,16.48886)"
       shape-rendering="crispEdges">
      <path
         fill="#fffdf6"
         d="M 0,0 H 41 V 41 H 0 Z"
         id="path6-4-0" />
      <path
         stroke="#231914"
         d="m 2,2.5 h 7 m 1,0 h 1 m 1,0 h 1 m 1,0 h 1 m 2,0 h 1 m 1,0 h 2 m 1,0 h 1 m 1,0 h 2 m 3,0 h 1 m 2,0 h 7 m -37,1 h 1 m 5,0 h 1 m 1,0 h 2 m 1,0 h 3 m 3,0 h 1 m 1,0 h 3 m 2,0 h 1 m 1,0 h 3 m 1,0 h 1 m 5,0 h 1 m -37,1 h 1 m 1,0 h 3 m 1,0 h 1 m 5,0 h 1 m 2,0 h 4 m 1,0 h 1 m 2,0 h 2 m 2,0 h 2 m 1,0 h 1 m 1,0 h 3 m 1,0 h 1 m -37,1 h 1 m 1,0 h 3 m 1,0 h 1 m 1,0 h 2 m 2,0 h 2 m 1,0 h 1 m 2,0 h 1 m 1,0 h 1 m 2,0 h 1 m 2,0 h 2 m 2,0 h 1 m 1,0 h 3 m 1,0 h 1 m -37,1 h 1 m 1,0 h 3 m 1,0 h 1 m 1,0 h 2 m 3,0 h 1 m 2,0 h 1 m 2,0 h 1 m 1,0 h 2 m 1,0 h 1 m 1,0 h 2 m 2,0 h 1 m 1,0 h 3 m 1,0 h 1 m -37,1 h 1 m 5,0 h 1 m 1,0 h 1 m 2,0 h 4 m 1,0 h 1 m 4,0 h 2 m 1,0 h 1 m 2,0 h 2 m 1,0 h 1 m 5,0 h 1 m -37,1 h 7 m 1,0 h 1 m 1,0 h 1 m 1,0 h 1 m 1,0 h 1 m 1,0 h 1 m 1,0 h 1 m 1,0 h 1 m 1,0 h 1 m 1,0 h 1 m 1,0 h 1 m 1,0 h 1 m 1,0 h 7 m -27,1 h 3 m 1,0 h 1 m 1,0 h 2 m 2,0 h 1 m 1,0 h 2 m 1,0 h 1 m -23,1 h 1 m 2,0 h 1 m 4,0 h 3 m 2,0 h 2 m 4,0 h 2 m 2,0 h 3 m 2,0 h 3 m 1,0 h 2 m -34,1 h 1 m 4,0 h 2 m 1,0 h 1 m 1,0 h 4 m 2,0 h 1 m 1,0 h 3 m 3,0 h 1 m 1,0 h 2 m 3,0 h 3 m -37,1 h 4 m 1,0 h 4 m 2,0 h 3 m 1,0 h 1 m 1,0 h 5 m 1,0 h 2 m 3,0 h 1 m 1,0 h 3 m 3,0 h 1 m -37,1 h 2 m 2,0 h 1 m 3,0 h 2 m 1,0 h 3 m 2,0 h 2 m 1,0 h 1 m 1,0 h 2 m 2,0 h 1 m 2,0 h 1 m 3,0 h 1 m 2,0 h 1 m -35,1 h 2 m 2,0 h 3 m 2,0 h 3 m 1,0 h 3 m 1,0 h 4 m 1,0 h 3 m 2,0 h 3 m 4,0 h 2 m -36,1 h 2 m 1,0 h 2 m 2,0 h 4 m 1,0 h 1 m 6,0 h 1 m 1,0 h 1 m 7,0 h 2 m 1,0 h 1 m 1,0 h 2 m -36,1 h 1 m 1,0 h 4 m 1,0 h 3 m 1,0 h 3 m 1,0 h 2 m 1,0 h 1 m 1,0 h 1 m 3,0 h 1 m 3,0 h 4 m 1,0 h 3 m -35,1 h 1 m 8,0 h 3 m 1,0 h 6 m 2,0 h 4 m 1,0 h 1 m 1,0 h 2 m 3,0 h 1 m -36,1 h 2 m 1,0 h 1 m 1,0 h 2 m 3,0 h 1 m 5,0 h 3 m 1,0 h 1 m 1,0 h 3 m 1,0 h 5 m 2,0 h 2 m 1,0 h 1 m -37,1 h 3 m 2,0 h 1 m 2,0 h 3 m 4,0 h 1 m 1,0 h 1 m 1,0 h 5 m 1,0 h 2 m 1,0 h 3 m 1,0 h 1 m 1,0 h 1 m 1,0 h 1 m -37,1 h 1 m 5,0 h 1 m 1,0 h 1 m 1,0 h 1 m 1,0 h 1 m 1,0 h 2 m 1,0 h 1 m 1,0 h 1 m 1,0 h 1 m 8,0 h 1 m 4,0 h 2 m -37,1 h 1 m 2,0 h 1 m 1,0 h 1 m 4,0 h 1 m 3,0 h 2 m 1,0 h 3 m 1,0 h 4 m 1,0 h 3 m 5,0 h 2 m -33,1 h 1 m 1,0 h 4 m 3,0 h 2 m 2,0 h 2 m 5,0 h 1 m 1,0 h 2 m 1,0 h 1 m 1,0 h 4 m 1,0 h 1 m -35,1 h 2 m 4,0 h 1 m 2,0 h 2 m 5,0 h 3 m 1,0 h 1 m 2,0 h 2 m 3,0 h 2 m 3,0 h 3 m -37,1 h 4 m 2,0 h 1 m 1,0 h 1 m 2,0 h 1 m 1,0 h 4 m 2,0 h 1 m 2,0 h 1 m 1,0 h 3 m 4,0 h 6 m -36,1 h 2 m 1,0 h 1 m 3,0 h 4 m 8,0 h 1 m 1,0 h 1 m 2,0 h 1 m 3,0 h 1 m 2,0 h 1 m 2,0 h 1 m -36,1 h 2 m 2,0 h 3 m 6,0 h 2 m 1,0 h 1 m 2,0 h 1 m 1,0 h 1 m 4,0 h 5 m 2,0 h 1 m 1,0 h 1 m -32,1 h 2 m 1,0 h 1 m 1,0 h 6 m 1,0 h 3 m 1,0 h 1 m 1,0 h 2 m 2,0 h 1 m 2,0 h 3 m 1,0 h 2 m 1,0 h 1 m -37,1 h 1 m 3,0 h 3 m 2,0 h 2 m 3,0 h 2 m 2,0 h 1 m 3,0 h 2 m 4,0 h 3 m 1,0 h 3 m 1,0 h 1 m -36,1 h 3 m 8,0 h 2 m 1,0 h 1 m 1,0 h 3 m 2,0 h 2 m 1,0 h 2 m 1,0 h 1 m 1,0 h 1 m 1,0 h 1 m 2,0 h 2 m -37,1 h 2 m 1,0 h 2 m 1,0 h 3 m 2,0 h 1 m 3,0 h 2 m 1,0 h 1 m 5,0 h 1 m 2,0 h 6 m 1,0 h 1 m 1,0 h 1 m -29,1 h 1 m 1,0 h 1 m 4,0 h 1 m 1,0 h 1 m 1,0 h 1 m 3,0 h 1 m 3,0 h 2 m 3,0 h 1 m 2,0 h 2 m -37,1 h 7 m 3,0 h 3 m 1,0 h 1 m 1,0 h 1 m 1,0 h 1 m 2,0 h 1 m 3,0 h 1 m 1,0 h 2 m 1,0 h 1 m 1,0 h 1 m 1,0 h 3 m -37,1 h 1 m 5,0 h 1 m 2,0 h 3 m 1,0 h 1 m 2,0 h 2 m 2,0 h 3 m 1,0 h 1 m 2,0 h 2 m 3,0 h 1 m 1,0 h 2 m -36,1 h 1 m 1,0 h 3 m 1,0 h 1 m 2,0 h 1 m 1,0 h 4 m 4,0 h 3 m 2,0 h 3 m 1,0 h 6 m 1,0 h 2 m -37,1 h 1 m 1,0 h 3 m 1,0 h 1 m 1,0 h 1 m 1,0 h 1 m 1,0 h 1 m 1,0 h 1 m 2,0 h 3 m 1,0 h 1 m 1,0 h 2 m 1,0 h 4 m 1,0 h 3 m 1,0 h 2 m -37,1 h 1 m 1,0 h 3 m 1,0 h 1 m 2,0 h 3 m 1,0 h 1 m 2,0 h 4 m 1,0 h 5 m 1,0 h 3 m 2,0 h 2 m 2,0 h 1 m -37,1 h 1 m 5,0 h 1 m 4,0 h 2 m 1,0 h 3 m 1,0 h 1 m 2,0 h 5 m 1,0 h 3 m -30,1 h 7 m 3,0 h 2 m 3,0 h 1 m 1,0 h 1 m 1,0 h 1 m 2,0 h 4 m 1,0 h 2 m 1,0 h 1 m 1,0 h 2 m 1,0 h 2"
         id="path7-9-7" />
    </g>
    <text
       x="183.96866"
       y="46.642296"
       text-anchor="middle"
       font-family="Montserrat, 'Avenir Next', 'Helvetica Neue', Arial, sans-serif"
       font-size="4.02106px"
       letter-spacing="0.55"
       fill="#231914"
       font-weight="600"
       id="text7-1-4"
       style="stroke-width:0.913877;fill:#ffffff">ОТЗЫВЫ • ЧАЕВЫЕ</text>
    <text
       xml:space="preserve"
       style="font-size:11.9196px;writing-mode:lr-tb;direction:ltr;fill:#ffffff;stroke-width:0.744977"
       x="170.84781"
       y="14.786687"
       id="text10-5-8"
       transform="scale(0.96024066,1.0414056)"><tspan
         sodipodi:role="line"
         id="tspan9-5-5"
         style="font-style:normal;font-variant:normal;font-weight:bold;font-stretch:normal;font-size:11.9196px;font-family:Montserrat, 'Avenir Next', 'Helvetica Neue', Arial, sans-serif;-inkscape-font-specification:'Montserrat, Avenir Next, Helvetica Neue, Arial, sans-serif Bold';stroke-width:0.744977;fill:#ffffff"
         x="170.84781"
         y="14.786687">МЕНЮ</tspan></text>
    <text
       x="53"
       y="98.199997"
       text-anchor="middle"
       font-family="Montserrat, 'Avenir Next', 'Helvetica Neue', Arial, sans-serif"
       font-size="2.5px"
       letter-spacing="0.35"
       fill="#231914"
       id="text9-5-8"
       inkscape:transform-center-x="-0.811394"
       inkscape:transform-center-y="12.982304"
       style="white-space:pre;inline-size:23.3816;fill:#ffffff"
       transform="translate(131.0615,-48.275099)"
       xml:space="preserve"><tspan
         x="53"
         y="98.199997"
         id="tspan5">qrstars.ru</tspan></text>
  </g>
  <g
     inkscape:groupmode="layer"
     inkscape:label="03 Safe zone - do not print"
     id="layer-safe"
     style="display:inline" />
  <g
     inkscape:groupmode="layer"
     inkscape:label="04 Cut contour"
     id="layer-cut" />
  <metadata
     id="metadata11">
    <rdf:RDF>
      <cc:Work
         rdf:about="">
        <dc:title>QRStars ресторанная круглая наклейка</dc:title>
      </cc:Work>
    </rdf:RDF>
  </metadata>
</svg>
